<?xml version="1.0" standalone="no"?>
<!DOCTYPE svg PUBLIC "-//W3C//DTD SVG 1.0//EN" "http://www.w3.org/TR/2001/REC-SVG-20010904/DTD/svg10.dtd">
<svg xmlns="http://www.w3.org/2000/svg" xmlns:xlink="http://www.w3.org/1999/xlink" id="body_1" width="632" height="420">

<g transform="matrix(0.6998893 0 0 0.6998893 -0 0.03321313)">
    <path d="M130.493 576.816C 130.493 578.819 129.948 580.352 128.857 581.415C 127.773 582.472 126.209 583 124.167 583L124.167 583L120.806 583L120.806 570.864L124.524 570.864C 126.411 570.864 127.878 571.387 128.924 572.433C 129.97 573.479 130.493 574.94 130.493 576.816zM128.999 576.866C 128.999 575.283 128.6 574.09 127.803 573.288C 127.012 572.486 125.833 572.084 124.267 572.084L124.267 572.084L122.217 572.084L122.217 581.78L123.935 581.78C 125.617 581.78 126.882 581.368 127.729 580.543C 128.575 579.713 128.999 578.487 128.999 576.866zM131.896 587.084C 131.37 587.084 130.944 587.015 130.617 586.876L130.617 586.876L130.617 585.756C 130.999 585.867 131.375 585.922 131.746 585.922C 132.178 585.922 132.493 585.803 132.692 585.565C 132.897 585.333 133 584.976 133 584.494L133 584.494L133 573.902L134.377 573.902L134.377 584.395C 134.377 586.188 133.55 587.084 131.896 587.084zM132.883 571.437C 132.883 571.122 132.961 570.892 133.116 570.748C 133.271 570.599 133.464 570.524 133.697 570.524C 133.918 570.524 134.109 570.599 134.27 570.748C 134.43 570.897 134.51 571.127 134.51 571.437C 134.51 571.747 134.43 571.979 134.27 572.134C 134.109 572.284 133.918 572.358 133.697 572.358C 133.464 572.358 133.271 572.284 133.116 572.134C 132.961 571.979 132.883 571.747 132.883 571.437zM142.894 583L142.62 581.705L142.554 581.705C 142.1 582.275 141.646 582.662 141.192 582.867C 140.744 583.066 140.182 583.166 139.507 583.166C 138.605 583.166 137.897 582.934 137.382 582.469C 136.873 582.004 136.619 581.343 136.619 580.485C 136.619 578.648 138.088 577.685 141.026 577.596L141.026 577.596L142.57 577.546L142.57 576.982C 142.57 576.268 142.415 575.742 142.105 575.405C 141.801 575.062 141.311 574.89 140.636 574.89C 139.878 574.89 139.02 575.123 138.063 575.587L138.063 575.587L137.64 574.533C 138.088 574.29 138.578 574.099 139.109 573.96C 139.646 573.822 140.182 573.753 140.719 573.753C 141.804 573.753 142.606 573.994 143.126 574.475C 143.652 574.957 143.915 575.729 143.915 576.791L143.915 576.791L143.915 583L142.894 583zM139.781 582.029C 140.639 582.029 141.311 581.794 141.798 581.323C 142.291 580.853 142.537 580.194 142.537 579.348L142.537 579.348L142.537 578.526L141.159 578.584C 140.063 578.623 139.272 578.794 138.785 579.099C 138.304 579.397 138.063 579.865 138.063 580.501C 138.063 581 138.212 581.379 138.511 581.639C 138.816 581.899 139.239 582.029 139.781 582.029zM152.988 583L152.988 577.115C 152.988 576.373 152.819 575.82 152.481 575.455C 152.144 575.089 151.615 574.907 150.896 574.907C 149.944 574.907 149.247 575.164 148.804 575.679C 148.361 576.193 148.14 577.043 148.14 578.227L148.14 578.227L148.14 583L146.762 583L146.762 573.902L147.883 573.902L148.107 575.147L148.173 575.147C 148.456 574.699 148.851 574.353 149.36 574.11C 149.869 573.861 150.437 573.736 151.062 573.736C 152.158 573.736 152.982 574.002 153.536 574.533C 154.089 575.059 154.366 575.903 154.366 577.065L154.366 577.065L154.366 583L152.988 583zM164.65 573.902L164.65 574.774L162.965 574.973C 163.12 575.167 163.259 575.421 163.38 575.737C 163.502 576.047 163.563 576.398 163.563 576.791C 163.563 577.682 163.259 578.393 162.65 578.924C 162.041 579.456 161.206 579.721 160.143 579.721C 159.872 579.721 159.617 579.699 159.379 579.655C 158.793 579.965 158.5 580.355 158.5 580.825C 158.5 581.074 158.602 581.26 158.807 581.381C 159.011 581.498 159.363 581.556 159.861 581.556L159.861 581.556L161.471 581.556C 162.456 581.556 163.212 581.763 163.737 582.178C 164.269 582.593 164.534 583.196 164.534 583.988C 164.534 584.995 164.13 585.761 163.322 586.287C 162.514 586.818 161.336 587.084 159.786 587.084C 158.596 587.084 157.678 586.863 157.03 586.42C 156.388 585.977 156.067 585.352 156.067 584.544C 156.067 583.991 156.244 583.512 156.599 583.108C 156.953 582.704 157.451 582.43 158.093 582.286C 157.86 582.181 157.664 582.018 157.503 581.796C 157.348 581.575 157.271 581.318 157.271 581.024C 157.271 580.692 157.36 580.402 157.537 580.153C 157.714 579.904 157.993 579.663 158.375 579.431C 157.905 579.237 157.52 578.908 157.221 578.443C 156.928 577.978 156.781 577.447 156.781 576.849C 156.781 575.853 157.08 575.087 157.678 574.55C 158.275 574.007 159.122 573.736 160.218 573.736C 160.694 573.736 161.123 573.792 161.504 573.902L161.504 573.902L164.65 573.902zM157.396 584.527C 157.396 585.02 157.603 585.393 158.018 585.648C 158.433 585.903 159.028 586.03 159.803 586.03C 160.959 586.03 161.814 585.855 162.368 585.507C 162.927 585.164 163.206 584.696 163.206 584.104C 163.206 583.611 163.054 583.268 162.75 583.075C 162.445 582.887 161.872 582.792 161.031 582.792L161.031 582.792L159.379 582.792C 158.754 582.792 158.267 582.942 157.918 583.241C 157.57 583.54 157.396 583.968 157.396 584.527zM158.143 576.816C 158.143 577.452 158.322 577.934 158.682 578.26C 159.042 578.587 159.543 578.75 160.185 578.75C 161.529 578.75 162.202 578.097 162.202 576.791C 162.202 575.424 161.521 574.741 160.16 574.741C 159.512 574.741 159.014 574.915 158.666 575.264C 158.317 575.612 158.143 576.13 158.143 576.816zM174.371 578.443C 174.371 579.926 173.997 581.085 173.25 581.921C 172.503 582.751 171.471 583.166 170.154 583.166C 169.34 583.166 168.618 582.975 167.987 582.593C 167.356 582.211 166.869 581.664 166.526 580.95C 166.183 580.236 166.012 579.4 166.012 578.443C 166.012 576.96 166.382 575.806 167.124 574.981C 167.866 574.151 168.895 573.736 170.212 573.736C 171.485 573.736 172.495 574.16 173.242 575.006C 173.994 575.853 174.371 576.999 174.371 578.443zM167.439 578.443C 167.439 579.605 167.672 580.49 168.137 581.099C 168.602 581.708 169.285 582.012 170.187 582.012C 171.089 582.012 171.772 581.711 172.237 581.107C 172.708 580.499 172.943 579.611 172.943 578.443C 172.943 577.286 172.708 576.409 172.237 575.812C 171.772 575.208 171.083 574.907 170.17 574.907C 169.268 574.907 168.588 575.203 168.128 575.795C 167.669 576.387 167.439 577.27 167.439 578.443zM191.952 576.916C 191.952 578.858 191.459 580.385 190.474 581.498C 189.495 582.61 188.131 583.166 186.382 583.166C 184.594 583.166 183.214 582.621 182.24 581.531C 181.271 580.435 180.787 578.891 180.787 576.899C 180.787 574.923 181.274 573.393 182.248 572.309C 183.222 571.218 184.605 570.673 186.398 570.673C 188.142 570.673 189.503 571.227 190.482 572.333C 191.462 573.44 191.952 574.968 191.952 576.916zM182.281 576.916C 182.281 578.559 182.63 579.807 183.327 580.659C 184.03 581.506 185.048 581.929 186.382 581.929C 187.727 581.929 188.742 581.506 189.428 580.659C 190.114 579.812 190.458 578.565 190.458 576.916C 190.458 575.283 190.114 574.046 189.428 573.205C 188.748 572.358 187.738 571.935 186.398 571.935C 185.054 571.935 184.03 572.361 183.327 573.213C 182.63 574.06 182.281 575.294 182.281 576.916zM196.077 577.953L196.077 583L194.666 583L194.666 570.864L197.995 570.864C 199.483 570.864 200.582 571.149 201.29 571.719C 202.004 572.289 202.361 573.147 202.361 574.292C 202.361 575.897 201.547 576.982 199.92 577.546L199.92 577.546L203.216 583L201.547 583L198.609 577.953L196.077 577.953zM196.077 576.741L198.011 576.741C 199.007 576.741 199.738 576.545 200.203 576.152C 200.667 575.753 200.9 575.159 200.9 574.367C 200.9 573.565 200.662 572.986 200.186 572.632C 199.716 572.278 198.958 572.101 197.912 572.101L197.912 572.101L196.077 572.101L196.077 576.741zM210.545 583L206.428 572.242L206.362 572.242C 206.439 573.094 206.478 574.107 206.478 575.28L206.478 575.28L206.478 583L205.175 583L205.175 570.864L207.3 570.864L211.143 580.875L211.209 580.875L215.086 570.864L217.194 570.864L217.194 583L215.783 583L215.783 575.181C 215.783 574.284 215.822 573.31 215.899 572.259L215.899 572.259L215.833 572.259L211.683 583L210.545 583z" stroke="none" fill="#4E4E4E" fill-rule="nonzero" />
    <path d="M4.77246 48.8955C 5.8252 48.8955 6.65234 49.1576 7.25391 49.6816C 7.86003 50.2012 8.16309 50.9144 8.16309 51.8213C 8.16309 52.8558 7.83268 53.667 7.17188 54.2549C 6.51562 54.8428 5.60872 55.1367 4.45117 55.1367C 3.32552 55.1367 2.46647 54.9567 1.87402 54.5967L1.87402 54.5967L1.87402 53.5029C 2.19303 53.708 2.58952 53.8698 3.06348 53.9883C 3.53743 54.1022 4.00456 54.1592 4.46484 54.1592C 5.26693 54.1592 5.889 53.9701 6.33105 53.5918C 6.77767 53.2135 7.00098 52.6667 7.00098 51.9512C 7.00098 50.5566 6.14648 49.8594 4.4375 49.8594C 4.00456 49.8594 3.42578 49.9255 2.70117 50.0576L2.70117 50.0576L2.11328 49.6816L2.48926 45.0059L7.45898 45.0059L7.45898 46.0518L3.45996 46.0518L3.20703 49.0527C 3.73112 48.9479 4.25293 48.8955 4.77246 48.8955zM16.2842 49.9893C 16.2842 51.7165 16.0107 53.0062 15.4639 53.8584C 14.9215 54.7106 14.0898 55.1367 12.9688 55.1367C 11.8932 55.1367 11.0752 54.7015 10.5146 53.8311C 9.9541 52.9561 9.67383 51.6755 9.67383 49.9893C 9.67383 48.2484 9.94499 46.9564 10.4873 46.1133C 11.0296 45.2702 11.8568 44.8486 12.9688 44.8486C 14.0534 44.8486 14.876 45.2884 15.4365 46.168C 16.0016 47.0475 16.2842 48.3213 16.2842 49.9893zM10.8223 49.9893C 10.8223 51.443 10.9932 52.5026 11.335 53.168C 11.6768 53.8288 12.2214 54.1592 12.9688 54.1592C 13.7253 54.1592 14.2721 53.8242 14.6094 53.1543C 14.9512 52.4798 15.1221 51.4248 15.1221 49.9893C 15.1221 48.5537 14.9512 47.5033 14.6094 46.8379C 14.2721 46.168 13.7253 45.833 12.9688 45.833C 12.2214 45.833 11.6768 46.1634 11.335 46.8242C 10.9932 47.4805 10.8223 48.5355 10.8223 49.9893zM24.2959 49.9893C 24.2959 51.7165 24.0225 53.0062 23.4756 53.8584C 22.9333 54.7106 22.1016 55.1367 20.9805 55.1367C 19.9049 55.1367 19.0869 54.7015 18.5264 53.8311C 17.9658 52.9561 17.6855 51.6755 17.6855 49.9893C 17.6855 48.2484 17.9567 46.9564 18.499 46.1133C 19.0413 45.2702 19.8685 44.8486 20.9805 44.8486C 22.0651 44.8486 22.8877 45.2884 23.4482 46.168C 24.0133 47.0475 24.2959 48.3213 24.2959 49.9893zM18.834 49.9893C 18.834 51.443 19.0049 52.5026 19.3467 53.168C 19.6885 53.8288 20.2331 54.1592 20.9805 54.1592C 21.737 54.1592 22.2839 53.8242 22.6211 53.1543C 22.9629 52.4798 23.1338 51.4248 23.1338 49.9893C 23.1338 48.5537 22.9629 47.5033 22.6211 46.8379C 22.2839 46.168 21.737 45.833 20.9805 45.833C 20.2331 45.833 19.6885 46.1634 19.3467 46.8242C 19.0049 47.4805 18.834 48.5355 18.834 49.9893zM8.68945 152.703L7.20605 152.703L7.20605 155L6.11914 155L6.11914 152.703L1.25879 152.703L1.25879 151.712L6.00293 144.951L7.20605 144.951L7.20605 151.671L8.68945 151.671L8.68945 152.703zM6.11914 151.671L6.11914 148.349C 6.11914 147.697 6.14193 146.961 6.1875 146.141L6.1875 146.141L6.13281 146.141C 5.91406 146.578 5.70898 146.94 5.51758 147.228L5.51758 147.228L2.39355 151.671L6.11914 151.671zM16.2842 149.989C 16.2842 151.716 16.0107 153.006 15.4639 153.858C 14.9215 154.711 14.0898 155.137 12.9688 155.137C 11.8932 155.137 11.0752 154.701 10.5146 153.831C 9.9541 152.956 9.67383 151.675 9.67383 149.989C 9.67383 148.248 9.94499 146.956 10.4873 146.113C 11.0296 145.27 11.8568 144.849 12.9688 144.849C 14.0534 144.849 14.876 145.288 15.4365 146.168C 16.0016 147.048 16.2842 148.321 16.2842 149.989zM10.8223 149.989C 10.8223 151.443 10.9932 152.503 11.335 153.168C 11.6768 153.829 12.2214 154.159 12.9688 154.159C 13.7253 154.159 14.2721 153.824 14.6094 153.154C 14.9512 152.48 15.1221 151.425 15.1221 149.989C 15.1221 148.554 14.9512 147.503 14.6094 146.838C 14.2721 146.168 13.7253 145.833 12.9688 145.833C 12.2214 145.833 11.6768 146.163 11.335 146.824C 10.9932 147.48 10.8223 148.535 10.8223 149.989zM24.2959 149.989C 24.2959 151.716 24.0225 153.006 23.4756 153.858C 22.9333 154.711 22.1016 155.137 20.9805 155.137C 19.9049 155.137 19.0869 154.701 18.5264 153.831C 17.9658 152.956 17.6855 151.675 17.6855 149.989C 17.6855 148.248 17.9567 146.956 18.499 146.113C 19.0413 145.27 19.8685 144.849 20.9805 144.849C 22.0651 144.849 22.8877 145.288 23.4482 146.168C 24.0133 147.048 24.2959 148.321 24.2959 149.989zM18.834 149.989C 18.834 151.443 19.0049 152.503 19.3467 153.168C 19.6885 153.829 20.2331 154.159 20.9805 154.159C 21.737 154.159 22.2839 153.824 22.6211 153.154C 22.9629 152.48 23.1338 151.425 23.1338 149.989C 23.1338 148.554 22.9629 147.503 22.6211 146.838C 22.2839 146.168 21.737 145.833 20.9805 145.833C 20.2331 145.833 19.6885 146.163 19.3467 146.824C 19.0049 147.48 18.834 148.535 18.834 149.989zM7.8418 247.357C 7.8418 247.995 7.66178 248.517 7.30176 248.923C 6.94629 249.328 6.44043 249.6 5.78418 249.736L5.78418 249.736L5.78418 249.791C 6.58626 249.891 7.18099 250.146 7.56836 250.557C 7.95573 250.967 8.14941 251.505 8.14941 252.17C 8.14941 253.122 7.81901 253.856 7.1582 254.371C 6.4974 254.882 5.55859 255.137 4.3418 255.137C 3.81315 255.137 3.3278 255.096 2.88574 255.014C 2.44824 254.936 2.02214 254.797 1.60742 254.597L1.60742 254.597L1.60742 253.517C 2.04036 253.731 2.50065 253.895 2.98828 254.009C 3.48047 254.118 3.94531 254.173 4.38281 254.173C 6.11003 254.173 6.97363 253.496 6.97363 252.143C 6.97363 250.93 6.02116 250.324 4.11621 250.324L4.11621 250.324L3.13184 250.324L3.13184 249.347L4.12988 249.347C 4.90918 249.347 5.52669 249.176 5.98242 248.834C 6.43815 248.488 6.66602 248.009 6.66602 247.398C 6.66602 246.911 6.4974 246.528 6.16016 246.25C 5.82747 245.972 5.37402 245.833 4.7998 245.833C 4.3623 245.833 3.94987 245.892 3.5625 246.011C 3.17513 246.129 2.73307 246.348 2.23633 246.667L2.23633 246.667L1.66211 245.901C 2.07227 245.578 2.54395 245.325 3.07715 245.143C 3.61491 244.956 4.18001 244.862 4.77246 244.862C 5.74316 244.862 6.4974 245.086 7.03516 245.532C 7.57292 245.974 7.8418 246.583 7.8418 247.357zM16.2842 249.989C 16.2842 251.716 16.0107 253.006 15.4639 253.858C 14.9215 254.711 14.0898 255.137 12.9688 255.137C 11.8932 255.137 11.0752 254.701 10.5146 253.831C 9.9541 252.956 9.67383 251.675 9.67383 249.989C 9.67383 248.248 9.94499 246.956 10.4873 246.113C 11.0296 245.27 11.8568 244.849 12.9688 244.849C 14.0534 244.849 14.876 245.288 15.4365 246.168C 16.0016 247.048 16.2842 248.321 16.2842 249.989zM10.8223 249.989C 10.8223 251.443 10.9932 252.503 11.335 253.168C 11.6768 253.829 12.2214 254.159 12.9688 254.159C 13.7253 254.159 14.2721 253.824 14.6094 253.154C 14.9512 252.48 15.1221 251.425 15.1221 249.989C 15.1221 248.554 14.9512 247.503 14.6094 246.838C 14.2721 246.168 13.7253 245.833 12.9688 245.833C 12.2214 245.833 11.6768 246.163 11.335 246.824C 10.9932 247.48 10.8223 248.535 10.8223 249.989zM24.2959 249.989C 24.2959 251.716 24.0225 253.006 23.4756 253.858C 22.9333 254.711 22.1016 255.137 20.9805 255.137C 19.9049 255.137 19.0869 254.701 18.5264 253.831C 17.9658 252.956 17.6855 251.675 17.6855 249.989C 17.6855 248.248 17.9567 246.956 18.499 246.113C 19.0413 245.27 19.8685 244.849 20.9805 244.849C 22.0651 244.849 22.8877 245.288 23.4482 246.168C 24.0133 247.048 24.2959 248.321 24.2959 249.989zM18.834 249.989C 18.834 251.443 19.0049 252.503 19.3467 253.168C 19.6885 253.829 20.2331 254.159 20.9805 254.159C 21.737 254.159 22.2839 253.824 22.6211 253.154C 22.9629 252.48 23.1338 251.425 23.1338 249.989C 23.1338 248.554 22.9629 247.503 22.6211 246.838C 22.2839 246.168 21.737 245.833 20.9805 245.833C 20.2331 245.833 19.6885 246.163 19.3467 246.824C 19.0049 247.48 18.834 248.535 18.834 249.989zM8.21777 355L1.64844 355L1.64844 354.022L4.28027 351.377C 5.08236 350.566 5.611 349.987 5.86621 349.641C 6.12142 349.294 6.31283 348.957 6.44043 348.629C 6.56803 348.301 6.63184 347.948 6.63184 347.569C 6.63184 347.036 6.47005 346.615 6.14648 346.305C 5.82292 345.99 5.37402 345.833 4.7998 345.833C 4.38509 345.833 3.99089 345.901 3.61719 346.038C 3.24805 346.175 2.83561 346.423 2.37988 346.783L2.37988 346.783L1.77832 346.011C 2.69889 345.245 3.7015 344.862 4.78613 344.862C 5.72493 344.862 6.46094 345.104 6.99414 345.587C 7.52734 346.065 7.79395 346.71 7.79395 347.521C 7.79395 348.155 7.61621 348.782 7.26074 349.401C 6.90527 350.021 6.23991 350.805 5.26465 351.753L5.26465 351.753L3.07715 353.893L3.07715 353.947L8.21777 353.947L8.21777 355zM16.2842 349.989C 16.2842 351.716 16.0107 353.006 15.4639 353.858C 14.9215 354.711 14.0898 355.137 12.9688 355.137C 11.8932 355.137 11.0752 354.701 10.5146 353.831C 9.9541 352.956 9.67383 351.675 9.67383 349.989C 9.67383 348.248 9.94499 346.956 10.4873 346.113C 11.0296 345.27 11.8568 344.849 12.9688 344.849C 14.0534 344.849 14.876 345.288 15.4365 346.168C 16.0016 347.048 16.2842 348.321 16.2842 349.989zM10.8223 349.989C 10.8223 351.443 10.9932 352.503 11.335 353.168C 11.6768 353.829 12.2214 354.159 12.9688 354.159C 13.7253 354.159 14.2721 353.824 14.6094 353.154C 14.9512 352.48 15.1221 351.425 15.1221 349.989C 15.1221 348.554 14.9512 347.503 14.6094 346.838C 14.2721 346.168 13.7253 345.833 12.9688 345.833C 12.2214 345.833 11.6768 346.163 11.335 346.824C 10.9932 347.48 10.8223 348.535 10.8223 349.989zM24.2959 349.989C 24.2959 351.716 24.0225 353.006 23.4756 353.858C 22.9333 354.711 22.1016 355.137 20.9805 355.137C 19.9049 355.137 19.0869 354.701 18.5264 353.831C 17.9658 352.956 17.6855 351.675 17.6855 349.989C 17.6855 348.248 17.9567 346.956 18.499 346.113C 19.0413 345.27 19.8685 344.849 20.9805 344.849C 22.0651 344.849 22.8877 345.288 23.4482 346.168C 24.0133 347.048 24.2959 348.321 24.2959 349.989zM18.834 349.989C 18.834 351.443 19.0049 352.503 19.3467 353.168C 19.6885 353.829 20.2331 354.159 20.9805 354.159C 21.737 354.159 22.2839 353.824 22.6211 353.154C 22.9629 352.48 23.1338 351.425 23.1338 349.989C 23.1338 348.554 22.9629 347.503 22.6211 346.838C 22.2839 346.168 21.737 345.833 20.9805 345.833C 20.2331 345.833 19.6885 346.163 19.3467 346.824C 19.0049 347.48 18.834 348.535 18.834 349.989zM5.85254 455L4.74512 455L4.74512 447.877C 4.74512 447.285 4.76335 446.724 4.7998 446.195C 4.7041 446.291 4.59701 446.391 4.47852 446.496C 4.36003 446.601 3.81771 447.045 2.85156 447.829L2.85156 447.829L2.25 447.05L4.89551 445.006L5.85254 445.006L5.85254 455zM16.2842 449.989C 16.2842 451.716 16.0107 453.006 15.4639 453.858C 14.9215 454.711 14.0898 455.137 12.9688 455.137C 11.8932 455.137 11.0752 454.701 10.5146 453.831C 9.9541 452.956 9.67383 451.675 9.67383 449.989C 9.67383 448.248 9.94499 446.956 10.4873 446.113C 11.0296 445.27 11.8568 444.849 12.9688 444.849C 14.0534 444.849 14.876 445.288 15.4365 446.168C 16.0016 447.048 16.2842 448.321 16.2842 449.989zM10.8223 449.989C 10.8223 451.443 10.9932 452.503 11.335 453.168C 11.6768 453.829 12.2214 454.159 12.9688 454.159C 13.7253 454.159 14.2721 453.824 14.6094 453.154C 14.9512 452.48 15.1221 451.425 15.1221 449.989C 15.1221 448.554 14.9512 447.503 14.6094 446.838C 14.2721 446.168 13.7253 445.833 12.9688 445.833C 12.2214 445.833 11.6768 446.163 11.335 446.824C 10.9932 447.48 10.8223 448.535 10.8223 449.989zM24.2959 449.989C 24.2959 451.716 24.0225 453.006 23.4756 453.858C 22.9333 454.711 22.1016 455.137 20.9805 455.137C 19.9049 455.137 19.0869 454.701 18.5264 453.831C 17.9658 452.956 17.6855 451.675 17.6855 449.989C 17.6855 448.248 17.9567 446.956 18.499 446.113C 19.0413 445.27 19.8685 444.849 20.9805 444.849C 22.0651 444.849 22.8877 445.288 23.4482 446.168C 24.0133 447.048 24.2959 448.321 24.2959 449.989zM18.834 449.989C 18.834 451.443 19.0049 452.503 19.3467 453.168C 19.6885 453.829 20.2331 454.159 20.9805 454.159C 21.737 454.159 22.2839 453.824 22.6211 453.154C 22.9629 452.48 23.1338 451.425 23.1338 449.989C 23.1338 448.554 22.9629 447.503 22.6211 446.838C 22.2839 446.168 21.737 445.833 20.9805 445.833C 20.2331 445.833 19.6885 446.163 19.3467 446.824C 19.0049 447.48 18.834 448.535 18.834 449.989z" stroke="none" fill="#8E8E8E" fill-rule="nonzero" />
    <path d="M76.2202 53.3208C 76.2202 52.4963 76.6795 52.084 77.5981 52.084C 78.5168 52.084 78.9761 52.4963 78.9761 53.3208C 78.9761 53.7137 78.8599 54.0208 78.6274 54.2422C 78.4006 54.458 78.0575 54.5659 77.5981 54.5659C 76.6795 54.5659 76.2202 54.1509 76.2202 53.3208zM78.8599 65L76.3281 65L76.3281 55.7197L78.8599 55.7197L78.8599 65zM85.4341 63.1489C 85.8768 63.1489 86.408 63.0521 87.0278 62.8584L87.0278 62.8584L87.0278 64.7427C 86.397 65.0249 85.6222 65.166 84.7036 65.166C 83.6909 65.166 82.9521 64.9115 82.4873 64.4023C 82.028 63.8877 81.7983 63.1185 81.7983 62.0947L81.7983 62.0947L81.7983 57.6206L80.5864 57.6206L80.5864 56.5498L81.981 55.7031L82.7114 53.7441L84.3301 53.7441L84.3301 55.7197L86.9282 55.7197L86.9282 57.6206L84.3301 57.6206L84.3301 62.0947C 84.3301 62.4544 84.4297 62.7201 84.6289 62.8916C 84.8337 63.0632 85.1021 63.1489 85.4341 63.1489zM92.7554 57.3467C 92.2186 57.3467 91.798 57.5182 91.4937 57.8613C 91.1893 58.1989 91.015 58.6803 90.9707 59.3057L90.9707 59.3057L94.5234 59.3057C 94.5124 58.6803 94.3491 58.1989 94.0337 57.8613C 93.7183 57.5182 93.2922 57.3467 92.7554 57.3467zM93.1123 65.166C 91.6182 65.166 90.4505 64.7537 89.6094 63.9292C 88.7682 63.1047 88.3477 61.937 88.3477 60.4263C 88.3477 58.8713 88.735 57.6704 89.5098 56.8237C 90.29 55.9715 91.3664 55.5454 92.7388 55.5454C 94.0503 55.5454 95.0713 55.9189 95.8018 56.666C 96.5322 57.4131 96.8975 58.4451 96.8975 59.7622L96.8975 59.7622L96.8975 60.9907L90.9126 60.9907C 90.9403 61.7101 91.1533 62.2718 91.5518 62.6758C 91.9502 63.0798 92.5091 63.2817 93.2285 63.2817C 93.7874 63.2817 94.3159 63.2236 94.814 63.1074C 95.312 62.9912 95.8322 62.8058 96.3745 62.5513L96.3745 62.5513L96.3745 64.5103C 95.9318 64.7316 95.4587 64.8949 94.9551 65C 94.4515 65.1107 93.8372 65.166 93.1123 65.166zM104.136 55.5454C 104.479 55.5454 104.764 55.5703 104.991 55.6201L104.991 55.6201L104.8 57.9941C 104.595 57.9388 104.346 57.9111 104.053 57.9111C 103.245 57.9111 102.614 58.1187 102.16 58.5337C 101.712 58.9487 101.488 59.5298 101.488 60.2769L101.488 60.2769L101.488 65L98.9561 65L98.9561 55.7197L100.874 55.7197L101.247 57.2803L101.372 57.2803C 101.659 56.7601 102.047 56.3423 102.534 56.0269C 103.026 55.7059 103.56 55.5454 104.136 55.5454zM112.569 65L112.08 63.7383L112.013 63.7383C 111.587 64.2751 111.147 64.6486 110.693 64.8589C 110.245 65.0636 109.659 65.166 108.934 65.166C 108.043 65.166 107.34 64.9115 106.825 64.4023C 106.316 63.8932 106.062 63.1683 106.062 62.2275C 106.062 61.2425 106.405 60.5176 107.091 60.0527C 107.783 59.5824 108.823 59.3223 110.212 59.2725L110.212 59.2725L111.822 59.2227L111.822 58.8159C 111.822 57.8752 111.341 57.4048 110.378 57.4048C 109.636 57.4048 108.765 57.6289 107.763 58.0771L107.763 58.0771L106.925 56.3672C 107.993 55.8083 109.177 55.5288 110.478 55.5288C 111.723 55.5288 112.677 55.8 113.341 56.3423C 114.005 56.8846 114.337 57.7091 114.337 58.8159L114.337 58.8159L114.337 65L112.569 65zM111.822 60.7002L110.843 60.7334C 110.107 60.7555 109.559 60.8883 109.199 61.1318C 108.84 61.3753 108.66 61.7461 108.66 62.2441C 108.66 62.958 109.069 63.3149 109.888 63.3149C 110.475 63.3149 110.942 63.1462 111.291 62.8086C 111.645 62.471 111.822 62.0228 111.822 61.4639L111.822 61.4639L111.822 60.7002zM120.862 63.1489C 121.305 63.1489 121.836 63.0521 122.456 62.8584L122.456 62.8584L122.456 64.7427C 121.825 65.0249 121.05 65.166 120.131 65.166C 119.119 65.166 118.38 64.9115 117.915 64.4023C 117.456 63.8877 117.226 63.1185 117.226 62.0947L117.226 62.0947L117.226 57.6206L116.014 57.6206L116.014 56.5498L117.409 55.7031L118.139 53.7441L119.758 53.7441L119.758 55.7197L122.356 55.7197L122.356 57.6206L119.758 57.6206L119.758 62.0947C 119.758 62.4544 119.857 62.7201 120.057 62.8916C 120.261 63.0632 120.53 63.1489 120.862 63.1489zM124.232 53.3208C 124.232 52.4963 124.691 52.084 125.61 52.084C 126.528 52.084 126.988 52.4963 126.988 53.3208C 126.988 53.7137 126.872 54.0208 126.639 54.2422C 126.412 54.458 126.069 54.5659 125.61 54.5659C 124.691 54.5659 124.232 54.1509 124.232 53.3208zM126.872 65L124.34 65L124.34 55.7197L126.872 55.7197L126.872 65zM131.553 60.3433C 131.553 61.2619 131.703 61.9564 132.001 62.4268C 132.306 62.8971 132.798 63.1323 133.479 63.1323C 134.154 63.1323 134.638 62.8999 134.932 62.4351C 135.23 61.9647 135.38 61.2674 135.38 60.3433C 135.38 59.4246 135.23 58.7357 134.932 58.2764C 134.633 57.8171 134.143 57.5874 133.462 57.5874C 132.787 57.5874 132.3 57.8171 132.001 58.2764C 131.703 58.7301 131.553 59.4191 131.553 60.3433zM137.97 60.3433C 137.97 61.854 137.571 63.0355 136.774 63.8877C 135.978 64.7399 134.868 65.166 133.446 65.166C 132.555 65.166 131.769 64.9723 131.088 64.585C 130.408 64.1921 129.885 63.6304 129.52 62.8999C 129.154 62.1694 128.972 61.3172 128.972 60.3433C 128.972 58.827 129.367 57.6483 130.159 56.8071C 130.95 55.966 132.062 55.5454 133.496 55.5454C 134.387 55.5454 135.172 55.7391 135.853 56.1265C 136.534 56.5138 137.057 57.07 137.422 57.7949C 137.787 58.5199 137.97 59.3693 137.97 60.3433zM148.628 65L146.096 65L146.096 59.5796C 146.096 58.91 145.977 58.4092 145.739 58.0771C 145.501 57.7396 145.122 57.5708 144.602 57.5708C 143.894 57.5708 143.382 57.8088 143.066 58.2847C 142.751 58.755 142.593 59.5381 142.593 60.6338L142.593 60.6338L142.593 65L140.062 65L140.062 55.7197L141.996 55.7197L142.336 56.9067L142.477 56.9067C 142.759 56.4585 143.147 56.1209 143.639 55.894C 144.137 55.6616 144.702 55.5454 145.333 55.5454C 146.412 55.5454 147.231 55.8387 147.79 56.4253C 148.348 57.0063 148.628 57.8475 148.628 58.9487L148.628 58.9487L148.628 65zM157.709 62.2441C 157.709 63.196 157.377 63.9209 156.713 64.4189C 156.054 64.917 155.067 65.166 153.75 65.166C 153.074 65.166 152.499 65.119 152.023 65.0249C 151.547 64.9364 151.102 64.8035 150.687 64.6265L150.687 64.6265L150.687 62.5347C 151.157 62.756 151.685 62.9414 152.272 63.0908C 152.864 63.2402 153.384 63.3149 153.833 63.3149C 154.751 63.3149 155.21 63.0493 155.21 62.5181C 155.21 62.3188 155.15 62.1584 155.028 62.0366C 154.906 61.9093 154.696 61.7682 154.397 61.6133C 154.098 61.4528 153.7 61.2674 153.202 61.0571C 152.488 60.7583 151.962 60.4816 151.625 60.2271C 151.292 59.9725 151.049 59.682 150.894 59.3555C 150.745 59.0234 150.67 58.6167 150.67 58.1353C 150.67 57.3107 150.988 56.6743 151.625 56.2261C 152.266 55.7723 153.174 55.5454 154.347 55.5454C 155.465 55.5454 156.552 55.7889 157.609 56.2759L157.609 56.2759L156.846 58.1021C 156.381 57.9028 155.946 57.7396 155.542 57.6123C 155.139 57.485 154.726 57.4214 154.306 57.4214C 153.559 57.4214 153.185 57.6234 153.185 58.0273C 153.185 58.2542 153.304 58.4507 153.542 58.6167C 153.785 58.7827 154.314 59.029 155.127 59.3555C 155.852 59.6488 156.384 59.9227 156.721 60.1772C 157.059 60.4318 157.308 60.7251 157.468 61.0571C 157.629 61.3892 157.709 61.7848 157.709 62.2441zM165.296 52.8643L160.772 65L158.473 65L162.997 52.8643L165.296 52.8643zM173.182 62.2441C 173.182 63.196 172.85 63.9209 172.186 64.4189C 171.527 64.917 170.539 65.166 169.222 65.166C 168.547 65.166 167.972 65.119 167.496 65.0249C 167.02 64.9364 166.574 64.8035 166.159 64.6265L166.159 64.6265L166.159 62.5347C 166.63 62.756 167.158 62.9414 167.745 63.0908C 168.337 63.2402 168.857 63.3149 169.305 63.3149C 170.224 63.3149 170.683 63.0493 170.683 62.5181C 170.683 62.3188 170.622 62.1584 170.5 62.0366C 170.379 61.9093 170.168 61.7682 169.87 61.6133C 169.571 61.4528 169.172 61.2674 168.674 61.0571C 167.96 60.7583 167.435 60.4816 167.097 60.2271C 166.765 59.9725 166.522 59.682 166.367 59.3555C 166.217 59.0234 166.143 58.6167 166.143 58.1353C 166.143 57.3107 166.461 56.6743 167.097 56.2261C 167.739 55.7723 168.647 55.5454 169.82 55.5454C 170.938 55.5454 172.025 55.7889 173.082 56.2759L173.082 56.2759L172.318 58.1021C 171.854 57.9028 171.419 57.7396 171.015 57.6123C 170.611 57.485 170.199 57.4214 169.778 57.4214C 169.031 57.4214 168.658 57.6234 168.658 58.0273C 168.658 58.2542 168.777 58.4507 169.015 58.6167C 169.258 58.7827 169.787 59.029 170.6 59.3555C 171.325 59.6488 171.856 59.9227 172.194 60.1772C 172.531 60.4318 172.78 60.7251 172.941 61.0571C 173.101 61.3892 173.182 61.7848 173.182 62.2441zM179 57.3467C 178.464 57.3467 178.043 57.5182 177.739 57.8613C 177.434 58.1989 177.26 58.6803 177.216 59.3057L177.216 59.3057L180.769 59.3057C 180.757 58.6803 180.594 58.1989 180.279 57.8613C 179.963 57.5182 179.537 57.3467 179 57.3467zM179.357 65.166C 177.863 65.166 176.696 64.7537 175.854 63.9292C 175.013 63.1047 174.593 61.937 174.593 60.4263C 174.593 58.8713 174.98 57.6704 175.755 56.8237C 176.535 55.9715 177.611 55.5454 178.984 55.5454C 180.295 55.5454 181.316 55.9189 182.047 56.666C 182.777 57.4131 183.143 58.4451 183.143 59.7622L183.143 59.7622L183.143 60.9907L177.158 60.9907C 177.185 61.7101 177.398 62.2718 177.797 62.6758C 178.195 63.0798 178.754 63.2817 179.474 63.2817C 180.033 63.2817 180.561 63.2236 181.059 63.1074C 181.557 62.9912 182.077 62.8058 182.62 62.5513L182.62 62.5513L182.62 64.5103C 182.177 64.7316 181.704 64.8949 181.2 65C 180.697 65.1107 180.082 65.166 179.357 65.166zM188.97 65.166C 186.081 65.166 184.637 63.5806 184.637 60.4097C 184.637 58.8325 185.03 57.6289 185.815 56.7988C 186.601 55.9632 187.727 55.5454 189.194 55.5454C 190.267 55.5454 191.23 55.7557 192.083 56.1763L192.083 56.1763L191.335 58.1353C 190.937 57.9748 190.566 57.8447 190.223 57.7451C 189.88 57.64 189.537 57.5874 189.194 57.5874C 187.877 57.5874 187.218 58.5226 187.218 60.3931C 187.218 62.2082 187.877 63.1157 189.194 63.1157C 189.681 63.1157 190.132 63.0521 190.547 62.9248C 190.962 62.792 191.377 62.5872 191.792 62.3105L191.792 62.3105L191.792 64.4771C 191.382 64.7371 190.967 64.917 190.547 65.0166C 190.132 65.1162 189.606 65.166 188.97 65.166zM88.0571 88L88.0571 82.0815C 88.0571 81.3566 87.9022 80.8143 87.5923 80.4546C 87.2824 80.0894 86.8009 79.9067 86.1479 79.9067C 85.2902 79.9067 84.6566 80.153 84.2471 80.6455C 83.8376 81.138 83.6328 81.8962 83.6328 82.9199L83.6328 82.9199L83.6328 88L82.2549 88L82.2549 82.0815C 82.2549 81.3566 82.0999 80.8143 81.79 80.4546C 81.4801 80.0894 80.9959 79.9067 80.3374 79.9067C 79.4741 79.9067 78.8405 80.1668 78.4365 80.687C 78.0381 81.2017 77.8389 82.0483 77.8389 83.2271L77.8389 83.2271L77.8389 88L76.4609 88L76.4609 78.9023L77.5815 78.9023L77.8057 80.1475L77.8721 80.1475C 78.1322 79.7048 78.4974 79.3589 78.9678 79.1099C 79.4437 78.8608 79.9749 78.7363 80.5615 78.7363C 81.9837 78.7363 82.9134 79.251 83.3506 80.2803L83.3506 80.2803L83.417 80.2803C 83.6882 79.8044 84.0811 79.4281 84.5957 79.1514C 85.1104 78.8747 85.6969 78.7363 86.3555 78.7363C 87.3848 78.7363 88.154 79.002 88.6631 79.5332C 89.1777 80.0589 89.4351 80.9028 89.4351 82.0649L89.4351 82.0649L89.4351 88L88.0571 88zM100.135 83.4429C 100.135 84.9259 99.7612 86.0853 99.0142 86.9209C 98.2671 87.751 97.235 88.166 95.918 88.166C 95.1045 88.166 94.3823 87.9751 93.7515 87.5933C 93.1206 87.2114 92.6336 86.6636 92.2905 85.9497C 91.9474 85.2358 91.7759 84.4002 91.7759 83.4429C 91.7759 81.9598 92.1466 80.806 92.8882 79.9814C 93.6297 79.1514 94.659 78.7363 95.9761 78.7363C 97.2489 78.7363 98.2588 79.1597 99.0059 80.0063C 99.7585 80.853 100.135 81.9985 100.135 83.4429zM93.2036 83.4429C 93.2036 84.605 93.436 85.4904 93.9009 86.0991C 94.3657 86.7078 95.0492 87.0122 95.9512 87.0122C 96.8532 87.0122 97.5366 86.7106 98.0015 86.1074C 98.4718 85.4987 98.707 84.6105 98.707 83.4429C 98.707 82.2863 98.4718 81.4092 98.0015 80.8115C 97.5366 80.2083 96.8477 79.9067 95.9346 79.9067C 95.0326 79.9067 94.3519 80.2028 93.8926 80.7949C 93.4333 81.387 93.2036 82.2697 93.2036 83.4429zM106.709 78.7363C 107.113 78.7363 107.475 78.7695 107.796 78.8359L107.796 78.8359L107.605 80.1143C 107.229 80.0312 106.897 79.9897 106.609 79.9897C 105.873 79.9897 105.243 80.2886 104.717 80.8862C 104.197 81.4839 103.937 82.2282 103.937 83.1191L103.937 83.1191L103.937 88L102.559 88L102.559 78.9023L103.696 78.9023L103.854 80.5874L103.92 80.5874C 104.257 79.9953 104.664 79.5387 105.14 79.2178C 105.616 78.8968 106.139 78.7363 106.709 78.7363zM113.341 88.166C 111.997 88.166 110.934 87.7565 110.154 86.9375C 109.379 86.1185 108.992 84.9813 108.992 83.5259C 108.992 82.0594 109.351 80.8945 110.071 80.0312C 110.796 79.168 111.767 78.7363 112.984 78.7363C 114.124 78.7363 115.026 79.1126 115.69 79.8652C 116.354 80.6123 116.687 81.6001 116.687 82.8286L116.687 82.8286L116.687 83.7002L110.419 83.7002C 110.447 84.7682 110.715 85.5789 111.225 86.1323C 111.739 86.6857 112.461 86.9624 113.391 86.9624C 114.371 86.9624 115.339 86.7576 116.296 86.3481L116.296 86.3481L116.296 87.5767C 115.809 87.7869 115.347 87.9364 114.91 88.0249C 114.479 88.119 113.956 88.166 113.341 88.166zM112.968 79.8901C 112.237 79.8901 111.653 80.1281 111.216 80.604C 110.785 81.0799 110.53 81.7384 110.453 82.5796L110.453 82.5796L115.209 82.5796C 115.209 81.7108 115.015 81.0467 114.628 80.5874C 114.241 80.1226 113.687 79.8901 112.968 79.8901zM124.838 88L123.46 88L123.46 78.9023L124.838 78.9023L124.838 88zM123.344 76.437C 123.344 76.1216 123.421 75.8919 123.576 75.748C 123.731 75.5986 123.925 75.5239 124.157 75.5239C 124.379 75.5239 124.569 75.5986 124.73 75.748C 124.89 75.8975 124.971 76.1271 124.971 76.437C 124.971 76.7469 124.89 76.9793 124.73 77.1343C 124.569 77.2837 124.379 77.3584 124.157 77.3584C 123.925 77.3584 123.731 77.2837 123.576 77.1343C 123.421 76.9793 123.344 76.7469 123.344 76.437zM133.628 85.5181C 133.628 86.3647 133.313 87.0177 132.682 87.4771C 132.051 87.9364 131.166 88.166 130.026 88.166C 128.819 88.166 127.879 87.9751 127.204 87.5933L127.204 87.5933L127.204 86.3149C 127.641 86.5363 128.108 86.7106 128.606 86.8379C 129.11 86.9652 129.594 87.0288 130.059 87.0288C 130.778 87.0288 131.332 86.9154 131.719 86.6885C 132.107 86.4561 132.3 86.1047 132.3 85.6343C 132.3 85.2801 132.145 84.9785 131.835 84.7295C 131.531 84.4749 130.933 84.1761 130.042 83.833C 129.196 83.5176 128.593 83.2437 128.233 83.0112C 127.879 82.7733 127.613 82.5049 127.436 82.2061C 127.264 81.9072 127.179 81.5503 127.179 81.1353C 127.179 80.3937 127.48 79.8099 128.083 79.3838C 128.687 78.9521 129.514 78.7363 130.565 78.7363C 131.545 78.7363 132.502 78.9355 133.438 79.334L133.438 79.334L132.948 80.4546C 132.035 80.0783 131.207 79.8901 130.466 79.8901C 129.813 79.8901 129.32 79.9925 128.988 80.1973C 128.656 80.402 128.49 80.6842 128.49 81.0439C 128.49 81.2874 128.551 81.495 128.673 81.6665C 128.8 81.8381 129.002 82.0013 129.279 82.1562C 129.556 82.3112 130.087 82.5353 130.873 82.8286C 131.952 83.2215 132.679 83.6172 133.056 84.0156C 133.438 84.4141 133.628 84.9149 133.628 85.5181zM144.527 78.7529C 145.723 78.7529 146.65 79.1624 147.308 79.9814C 147.972 80.7949 148.304 81.9487 148.304 83.4429C 148.304 84.937 147.969 86.0991 147.3 86.9292C 146.636 87.7537 145.712 88.166 144.527 88.166C 143.935 88.166 143.393 88.0581 142.9 87.8423C 142.413 87.6209 142.004 87.2834 141.672 86.8296L141.672 86.8296L141.572 86.8296L141.282 88L140.294 88L140.294 75.084L141.672 75.084L141.672 78.2217C 141.672 78.9245 141.65 79.5553 141.605 80.1143L141.605 80.1143L141.672 80.1143C 142.314 79.2067 143.266 78.7529 144.527 78.7529zM144.328 79.9067C 143.387 79.9067 142.709 80.1779 142.294 80.7202C 141.879 81.257 141.672 82.1646 141.672 83.4429C 141.672 84.7212 141.885 85.637 142.311 86.1904C 142.737 86.7383 143.421 87.0122 144.361 87.0122C 145.208 87.0122 145.839 86.7051 146.254 86.0908C 146.669 85.471 146.876 84.5828 146.876 83.4263C 146.876 82.242 146.669 81.3594 146.254 80.7783C 145.839 80.1973 145.197 79.9067 144.328 79.9067zM154.563 88.166C 153.218 88.166 152.156 87.7565 151.375 86.9375C 150.601 86.1185 150.213 84.9813 150.213 83.5259C 150.213 82.0594 150.573 80.8945 151.292 80.0313C 152.017 79.168 152.989 78.7363 154.206 78.7363C 155.346 78.7363 156.248 79.1126 156.912 79.8652C 157.576 80.6123 157.908 81.6001 157.908 82.8286L157.908 82.8286L157.908 83.7002L151.641 83.7002C 151.669 84.7682 151.937 85.5789 152.446 86.1323C 152.961 86.6857 153.683 86.9624 154.613 86.9624C 155.592 86.9624 156.561 86.7576 157.518 86.3481L157.518 86.3481L157.518 87.5767C 157.031 87.7869 156.569 87.9364 156.132 88.0249C 155.7 88.119 155.177 88.166 154.563 88.166zM154.189 79.8901C 153.459 79.8901 152.875 80.1281 152.438 80.604C 152.006 81.0799 151.752 81.7384 151.674 82.5796L151.674 82.5796L156.431 82.5796C 156.431 81.7108 156.237 81.0467 155.85 80.5874C 155.462 80.1226 154.909 79.8901 154.189 79.8901zM163.204 87.0288C 163.448 87.0288 163.683 87.0122 163.91 86.979C 164.137 86.9403 164.316 86.9015 164.449 86.8628L164.449 86.8628L164.449 87.917C 164.3 87.9889 164.078 88.047 163.785 88.0913C 163.497 88.1411 163.237 88.166 163.005 88.166C 161.245 88.166 160.365 87.2391 160.365 85.3853L160.365 85.3853L160.365 79.9731L159.062 79.9731L159.062 79.3091L160.365 78.7363L160.946 76.7939L161.743 76.7939L161.743 78.9023L164.383 78.9023L164.383 79.9731L161.743 79.9731L161.743 85.3271C 161.743 85.875 161.873 86.2956 162.133 86.5889C 162.393 86.8822 162.75 87.0288 163.204 87.0288zM169.214 87.0288C 169.457 87.0288 169.693 87.0122 169.919 86.979C 170.146 86.9403 170.326 86.9015 170.459 86.8628L170.459 86.8628L170.459 87.917C 170.31 87.9889 170.088 88.047 169.795 88.0913C 169.507 88.1411 169.247 88.166 169.015 88.166C 167.255 88.166 166.375 87.2391 166.375 85.3853L166.375 85.3853L166.375 79.9731L165.072 79.9731L165.072 79.3091L166.375 78.7363L166.956 76.7939L167.753 76.7939L167.753 78.9023L170.393 78.9023L170.393 79.9731L167.753 79.9731L167.753 85.3271C 167.753 85.875 167.883 86.2956 168.143 86.5889C 168.403 86.8822 168.76 87.0288 169.214 87.0288zM176.128 88.166C 174.784 88.166 173.721 87.7565 172.941 86.9375C 172.166 86.1185 171.779 84.9813 171.779 83.5259C 171.779 82.0594 172.139 80.8945 172.858 80.0313C 173.583 79.168 174.554 78.7363 175.771 78.7363C 176.911 78.7363 177.813 79.1126 178.478 79.8652C 179.142 80.6123 179.474 81.6001 179.474 82.8286L179.474 82.8286L179.474 83.7002L173.207 83.7002C 173.234 84.7682 173.503 85.5789 174.012 86.1323C 174.526 86.6857 175.249 86.9624 176.178 86.9624C 177.158 86.9624 178.126 86.7576 179.083 86.3481L179.083 86.3481L179.083 87.5767C 178.597 87.7869 178.134 87.9364 177.697 88.0249C 177.266 88.119 176.743 88.166 176.128 88.166zM175.755 79.8901C 175.024 79.8901 174.441 80.1281 174.003 80.604C 173.572 81.0799 173.317 81.7384 173.24 82.5796L173.24 82.5796L177.996 82.5796C 177.996 81.7108 177.802 81.0467 177.415 80.5874C 177.028 80.1226 176.474 79.8901 175.755 79.8901zM185.981 78.7363C 186.385 78.7363 186.748 78.7695 187.069 78.8359L187.069 78.8359L186.878 80.1143C 186.502 80.0313 186.17 79.9897 185.882 79.9897C 185.146 79.9897 184.515 80.2886 183.989 80.8862C 183.469 81.4839 183.209 82.2282 183.209 83.1191L183.209 83.1191L183.209 88L181.831 88L181.831 78.9023L182.968 78.9023L183.126 80.5874L183.192 80.5874C 183.53 79.9953 183.937 79.5387 184.413 79.2178C 184.889 78.8968 185.411 78.7363 185.981 78.7363z" stroke="none" fill="#8E8E8E" fill-rule="nonzero" />
    <path d="M269.544 579.771C 269.544 580.839 269.157 581.672 268.382 582.27C 267.607 582.867 266.556 583.166 265.228 583.166C 263.789 583.166 262.682 582.981 261.907 582.61L261.907 582.61L261.907 581.249C 262.405 581.459 262.948 581.625 263.534 581.747C 264.121 581.868 264.702 581.929 265.277 581.929C 266.218 581.929 266.926 581.752 267.402 581.398C 267.878 581.038 268.116 580.54 268.116 579.904C 268.116 579.483 268.03 579.14 267.859 578.875C 267.693 578.603 267.411 578.354 267.012 578.127C 266.619 577.901 266.019 577.643 265.211 577.355C 264.082 576.951 263.274 576.473 262.787 575.919C 262.306 575.366 262.065 574.644 262.065 573.753C 262.065 572.818 262.416 572.073 263.119 571.52C 263.822 570.967 264.752 570.69 265.908 570.69C 267.115 570.69 268.224 570.911 269.237 571.354L269.237 571.354L268.797 572.583C 267.795 572.162 266.821 571.952 265.875 571.952C 265.128 571.952 264.544 572.112 264.124 572.433C 263.703 572.754 263.493 573.2 263.493 573.77C 263.493 574.19 263.57 574.536 263.725 574.807C 263.88 575.073 264.14 575.319 264.505 575.546C 264.876 575.767 265.441 576.014 266.199 576.285C 267.472 576.738 268.346 577.225 268.822 577.746C 269.303 578.266 269.544 578.941 269.544 579.771zM282.56 576.916C 282.56 578.471 282.247 579.763 281.622 580.792C 280.996 581.821 280.114 582.519 278.974 582.884L278.974 582.884L281.862 585.889L279.812 585.889L277.446 583.149L276.99 583.166C 275.202 583.166 273.822 582.621 272.848 581.531C 271.879 580.435 271.395 578.891 271.395 576.899C 271.395 574.923 271.882 573.393 272.856 572.309C 273.83 571.218 275.213 570.673 277.006 570.673C 278.75 570.673 280.111 571.227 281.09 572.333C 282.07 573.44 282.56 574.968 282.56 576.916zM272.889 576.916C 272.889 578.559 273.238 579.807 273.935 580.659C 274.638 581.506 275.656 581.929 276.99 581.929C 278.334 581.929 279.35 581.506 280.036 580.659C 280.722 579.812 281.065 578.565 281.065 576.916C 281.065 575.283 280.722 574.046 280.036 573.205C 279.355 572.358 278.346 571.935 277.006 571.935C 275.662 571.935 274.638 572.361 273.935 573.213C 273.238 574.06 272.889 575.294 272.889 576.916zM285.274 583L285.274 570.864L286.685 570.864L286.685 581.722L292.039 581.722L292.039 583L285.274 583zM301.734 583L300.224 579.14L295.359 579.14L293.865 583L292.438 583L297.235 570.814L298.422 570.814L303.195 583L301.734 583zM299.784 577.87L298.373 574.11C 298.19 573.634 298.002 573.05 297.808 572.358C 297.686 572.89 297.512 573.473 297.285 574.11L297.285 574.11L295.857 577.87L299.784 577.87zM306.034 583L304.656 583L304.656 570.084L306.034 570.084L306.034 583zM312.592 583.166C 311.275 583.166 310.254 582.762 309.529 581.954C 308.809 581.141 308.45 579.992 308.45 578.509C 308.45 576.987 308.815 575.812 309.545 574.981C 310.281 574.151 311.327 573.736 312.683 573.736C 313.12 573.736 313.557 573.783 313.995 573.877C 314.432 573.972 314.775 574.082 315.024 574.209L315.024 574.209L314.601 575.38C 314.296 575.258 313.964 575.159 313.604 575.081C 313.245 574.998 312.927 574.957 312.65 574.957C 310.802 574.957 309.877 576.135 309.877 578.493C 309.877 579.611 310.102 580.468 310.55 581.066C 311.004 581.664 311.673 581.962 312.559 581.962C 313.317 581.962 314.094 581.799 314.891 581.473L314.891 581.473L314.891 582.693C 314.282 583.008 313.516 583.166 312.592 583.166zM323.283 583L323.283 577.115C 323.283 576.373 323.114 575.82 322.777 575.455C 322.439 575.089 321.911 574.907 321.191 574.907C 320.234 574.907 319.534 575.167 319.091 575.687C 318.654 576.207 318.436 577.059 318.436 578.244L318.436 578.244L318.436 583L317.058 583L317.058 570.084L318.436 570.084L318.436 573.994C 318.436 574.464 318.413 574.854 318.369 575.164L318.369 575.164L318.452 575.164C 318.723 574.727 319.108 574.384 319.606 574.135C 320.11 573.88 320.682 573.753 321.324 573.753C 322.437 573.753 323.269 574.019 323.823 574.55C 324.382 575.076 324.661 575.914 324.661 577.065L324.661 577.065L324.661 583L323.283 583zM331.343 583.166C 329.999 583.166 328.936 582.757 328.156 581.938C 327.381 581.118 326.994 579.981 326.994 578.526C 326.994 577.059 327.353 575.895 328.073 575.031C 328.798 574.168 329.769 573.736 330.986 573.736C 332.126 573.736 333.028 574.113 333.692 574.865C 334.356 575.612 334.688 576.6 334.688 577.829L334.688 577.829L334.688 578.7L328.421 578.7C 328.449 579.768 328.717 580.579 329.227 581.132C 329.741 581.686 330.463 581.962 331.393 581.962C 332.373 581.962 333.341 581.758 334.298 581.348L334.298 581.348L334.298 582.577C 333.811 582.787 333.349 582.936 332.912 583.025C 332.48 583.119 331.958 583.166 331.343 583.166zM330.97 574.89C 330.239 574.89 329.655 575.128 329.218 575.604C 328.787 576.08 328.532 576.738 328.455 577.58L328.455 577.58L333.211 577.58C 333.211 576.711 333.017 576.047 332.63 575.587C 332.243 575.123 331.689 574.89 330.97 574.89zM348.642 583L348.642 577.082C 348.642 576.357 348.487 575.814 348.177 575.455C 347.867 575.089 347.386 574.907 346.733 574.907C 345.875 574.907 345.242 575.153 344.832 575.646C 344.423 576.138 344.218 576.896 344.218 577.92L344.218 577.92L344.218 583L342.84 583L342.84 577.082C 342.84 576.357 342.685 575.814 342.375 575.455C 342.065 575.089 341.581 574.907 340.922 574.907C 340.059 574.907 339.425 575.167 339.021 575.687C 338.623 576.202 338.424 577.048 338.424 578.227L338.424 578.227L338.424 583L337.046 583L337.046 573.902L338.167 573.902L338.391 575.147L338.457 575.147C 338.717 574.705 339.082 574.359 339.553 574.11C 340.029 573.861 340.56 573.736 341.146 573.736C 342.569 573.736 343.498 574.251 343.936 575.28L343.936 575.28L344.002 575.28C 344.273 574.804 344.666 574.428 345.181 574.151C 345.695 573.875 346.282 573.736 346.94 573.736C 347.97 573.736 348.739 574.002 349.248 574.533C 349.763 575.059 350.02 575.903 350.02 577.065L350.02 577.065L350.02 583L348.642 583zM351.423 573.902L352.9 573.902L354.893 579.09C 355.33 580.275 355.601 581.13 355.706 581.655L355.706 581.655L355.772 581.655C 355.844 581.373 355.994 580.892 356.221 580.211C 356.453 579.525 357.206 577.422 358.479 573.902L358.479 573.902L359.956 573.902L356.046 584.262C 355.659 585.285 355.205 586.01 354.685 586.437C 354.17 586.868 353.537 587.084 352.784 587.084C 352.364 587.084 351.949 587.037 351.539 586.943L351.539 586.943L351.539 585.839C 351.843 585.905 352.184 585.938 352.56 585.938C 353.506 585.938 354.181 585.407 354.585 584.345L354.585 584.345L355.092 583.05L351.423 573.902z" stroke="none" fill="#4E4E4E" fill-rule="nonzero" />
    <path d="M429.421 574.4C 429.421 575.629 429 576.575 428.159 577.239C 427.324 577.898 426.125 578.227 424.565 578.227L424.565 578.227L423.137 578.227L423.137 583L421.726 583L421.726 570.864L424.872 570.864C 427.905 570.864 429.421 572.043 429.421 574.4zM423.137 577.015L424.407 577.015C 425.658 577.015 426.563 576.813 427.122 576.409C 427.681 576.005 427.96 575.358 427.96 574.467C 427.96 573.664 427.697 573.067 427.171 572.674C 426.646 572.281 425.827 572.084 424.714 572.084L424.714 572.084L423.137 572.084L423.137 577.015zM435.912 573.736C 436.316 573.736 436.679 573.77 437 573.836L437 573.836L436.809 575.114C 436.432 575.031 436.1 574.99 435.812 574.99C 435.076 574.99 434.446 575.289 433.92 575.886C 433.4 576.484 433.14 577.228 433.14 578.119L433.14 578.119L433.14 583L431.762 583L431.762 573.902L432.899 573.902L433.057 575.587L433.123 575.587C 433.461 574.995 433.867 574.539 434.343 574.218C 434.819 573.897 435.342 573.736 435.912 573.736zM440.079 583L438.701 583L438.701 573.902L440.079 573.902L440.079 583zM438.585 571.437C 438.585 571.122 438.662 570.892 438.817 570.748C 438.972 570.599 439.166 570.524 439.398 570.524C 439.62 570.524 439.811 570.599 439.971 570.748C 440.132 570.897 440.212 571.127 440.212 571.437C 440.212 571.747 440.132 571.979 439.971 572.134C 439.811 572.284 439.62 572.358 439.398 572.358C 439.166 572.358 438.972 572.284 438.817 572.134C 438.662 571.979 438.585 571.747 438.585 571.437zM448.87 580.518C 448.87 581.365 448.554 582.018 447.923 582.477C 447.292 582.936 446.407 583.166 445.267 583.166C 444.061 583.166 443.12 582.975 442.445 582.593L442.445 582.593L442.445 581.315C 442.882 581.536 443.35 581.711 443.848 581.838C 444.351 581.965 444.835 582.029 445.3 582.029C 446.02 582.029 446.573 581.915 446.96 581.688C 447.348 581.456 447.542 581.105 447.542 580.634C 447.542 580.28 447.387 579.979 447.077 579.729C 446.772 579.475 446.175 579.176 445.284 578.833C 444.437 578.518 443.834 578.244 443.474 578.011C 443.12 577.773 442.854 577.505 442.677 577.206C 442.506 576.907 442.42 576.55 442.42 576.135C 442.42 575.394 442.722 574.81 443.325 574.384C 443.928 573.952 444.755 573.736 445.807 573.736C 446.786 573.736 447.743 573.936 448.679 574.334L448.679 574.334L448.189 575.455C 447.276 575.078 446.449 574.89 445.707 574.89C 445.054 574.89 444.562 574.993 444.229 575.197C 443.897 575.402 443.731 575.684 443.731 576.044C 443.731 576.287 443.792 576.495 443.914 576.667C 444.041 576.838 444.243 577.001 444.52 577.156C 444.797 577.311 445.328 577.535 446.114 577.829C 447.193 578.222 447.921 578.617 448.297 579.016C 448.679 579.414 448.87 579.915 448.87 580.518zM462.715 583L462.715 577.082C 462.715 576.357 462.56 575.814 462.25 575.455C 461.941 575.089 461.459 574.907 460.806 574.907C 459.948 574.907 459.315 575.153 458.905 575.646C 458.496 576.138 458.291 576.896 458.291 577.92L458.291 577.92L458.291 583L456.913 583L456.913 577.082C 456.913 576.357 456.758 575.814 456.448 575.455C 456.138 575.089 455.654 574.907 454.996 574.907C 454.132 574.907 453.499 575.167 453.095 575.687C 452.696 576.202 452.497 577.048 452.497 578.227L452.497 578.227L452.497 583L451.119 583L451.119 573.902L452.24 573.902L452.464 575.147L452.53 575.147C 452.79 574.705 453.156 574.359 453.626 574.11C 454.102 573.861 454.633 573.736 455.22 573.736C 456.642 573.736 457.572 574.251 458.009 575.28L458.009 575.28L458.075 575.28C 458.346 574.804 458.739 574.428 459.254 574.151C 459.769 573.875 460.355 573.736 461.014 573.736C 462.043 573.736 462.812 574.002 463.321 574.533C 463.836 575.059 464.093 575.903 464.093 577.065L464.093 577.065L464.093 583L462.715 583zM472.535 583L472.261 581.705L472.195 581.705C 471.741 582.275 471.287 582.662 470.833 582.867C 470.385 583.066 469.824 583.166 469.148 583.166C 468.246 583.166 467.538 582.934 467.023 582.469C 466.514 582.004 466.26 581.343 466.26 580.485C 466.26 578.648 467.729 577.685 470.667 577.596L470.667 577.596L472.211 577.546L472.211 576.982C 472.211 576.268 472.056 575.742 471.747 575.405C 471.442 575.062 470.952 574.89 470.277 574.89C 469.519 574.89 468.661 575.123 467.704 575.587L467.704 575.587L467.281 574.533C 467.729 574.29 468.219 574.099 468.75 573.96C 469.287 573.822 469.824 573.753 470.36 573.753C 471.445 573.753 472.247 573.994 472.768 574.475C 473.293 574.957 473.556 575.729 473.556 576.791L473.556 576.791L473.556 583L472.535 583zM469.422 582.029C 470.28 582.029 470.952 581.794 471.439 581.323C 471.932 580.853 472.178 580.194 472.178 579.348L472.178 579.348L472.178 578.526L470.8 578.584C 469.705 578.623 468.913 578.794 468.426 579.099C 467.945 579.397 467.704 579.865 467.704 580.501C 467.704 581 467.854 581.379 468.152 581.639C 468.457 581.899 468.88 582.029 469.422 582.029z" stroke="none" fill="#4E4E4E" fill-rule="nonzero" />
    <path d="M551.872 583L550.46 583L550.46 572.118L546.617 572.118L546.617 570.864L555.715 570.864L555.715 572.118L551.872 572.118L551.872 583zM555.897 573.902L557.375 573.902L559.367 579.09C 559.804 580.275 560.076 581.13 560.181 581.655L560.181 581.655L560.247 581.655C 560.319 581.373 560.468 580.892 560.695 580.211C 560.928 579.525 561.68 577.422 562.953 573.902L562.953 573.902L564.431 573.902L560.521 584.262C 560.134 585.285 559.68 586.01 559.16 586.437C 558.645 586.868 558.011 587.084 557.259 587.084C 556.838 587.084 556.423 587.037 556.014 586.943L556.014 586.943L556.014 585.839C 556.318 585.905 556.658 585.938 557.035 585.938C 557.981 585.938 558.656 585.407 559.06 584.345L559.06 584.345L559.566 583.05L555.897 573.902zM570.142 583.166C 569.549 583.166 569.007 583.058 568.515 582.842C 568.028 582.621 567.618 582.283 567.286 581.83L567.286 581.83L567.187 581.83C 567.253 582.361 567.286 582.864 567.286 583.34L567.286 583.34L567.286 587.084L565.908 587.084L565.908 573.902L567.029 573.902L567.22 575.147L567.286 575.147C 567.64 574.649 568.053 574.29 568.523 574.068C 568.993 573.847 569.533 573.736 570.142 573.736C 571.348 573.736 572.278 574.149 572.931 574.973C 573.589 575.798 573.918 576.954 573.918 578.443C 573.918 579.937 573.584 581.099 572.914 581.929C 572.25 582.754 571.326 583.166 570.142 583.166zM569.942 574.907C 569.013 574.907 568.34 575.164 567.925 575.679C 567.51 576.193 567.297 577.012 567.286 578.136L567.286 578.136L567.286 578.443C 567.286 579.721 567.499 580.637 567.925 581.19C 568.351 581.738 569.035 582.012 569.976 582.012C 570.761 582.012 571.376 581.694 571.818 581.058C 572.267 580.421 572.491 579.544 572.491 578.426C 572.491 577.292 572.267 576.423 571.818 575.82C 571.376 575.211 570.75 574.907 569.942 574.907zM580.177 583.166C 578.833 583.166 577.77 582.757 576.99 581.938C 576.215 581.118 575.828 579.981 575.828 578.526C 575.828 577.059 576.187 575.895 576.907 575.031C 577.632 574.168 578.603 573.736 579.82 573.736C 580.96 573.736 581.862 574.113 582.526 574.865C 583.19 575.612 583.522 576.6 583.522 577.829L583.522 577.829L583.522 578.7L577.255 578.7C 577.283 579.768 577.551 580.579 578.061 581.132C 578.575 581.686 579.297 581.962 580.227 581.962C 581.207 581.962 582.175 581.758 583.132 581.348L583.132 581.348L583.132 582.577C 582.645 582.787 582.183 582.936 581.746 583.025C 581.314 583.119 580.792 583.166 580.177 583.166zM579.804 574.89C 579.073 574.89 578.489 575.128 578.052 575.604C 577.621 576.08 577.366 576.738 577.289 577.58L577.289 577.58L582.045 577.58C 582.045 576.711 581.851 576.047 581.464 575.587C 581.076 575.123 580.523 574.89 579.804 574.89zM596.621 576.916C 596.621 578.858 596.129 580.385 595.144 581.498C 594.164 582.61 592.8 583.166 591.051 583.166C 589.264 583.166 587.883 582.621 586.909 581.531C 585.941 580.435 585.457 578.891 585.457 576.899C 585.457 574.923 585.944 573.393 586.917 572.309C 587.891 571.218 589.275 570.673 591.068 570.673C 592.811 570.673 594.172 571.227 595.152 572.333C 596.131 573.44 596.621 574.968 596.621 576.916zM586.951 576.916C 586.951 578.559 587.299 579.807 587.997 580.659C 588.699 581.506 589.718 581.929 591.051 581.929C 592.396 581.929 593.411 581.506 594.098 580.659C 594.784 579.812 595.127 578.565 595.127 576.916C 595.127 575.283 594.784 574.046 594.098 573.205C 593.417 572.358 592.407 571.935 591.068 571.935C 589.723 571.935 588.699 572.361 587.997 573.213C 587.299 574.06 586.951 575.294 586.951 576.916zM600.747 577.953L600.747 583L599.335 583L599.335 570.864L602.664 570.864C 604.153 570.864 605.251 571.149 605.959 571.719C 606.673 572.289 607.03 573.147 607.03 574.292C 607.03 575.897 606.217 576.982 604.59 577.546L604.59 577.546L607.885 583L606.217 583L603.278 577.953L600.747 577.953zM600.747 576.741L602.681 576.741C 603.677 576.741 604.407 576.545 604.872 576.152C 605.337 575.753 605.569 575.159 605.569 574.367C 605.569 573.565 605.331 572.986 604.855 572.632C 604.385 572.278 603.627 572.101 602.581 572.101L602.581 572.101L600.747 572.101L600.747 576.741zM615.215 583L611.098 572.242L611.031 572.242C 611.109 573.094 611.147 574.107 611.147 575.28L611.147 575.28L611.147 583L609.844 583L609.844 570.864L611.969 570.864L615.812 580.875L615.879 580.875L619.755 570.864L621.864 570.864L621.864 583L620.453 583L620.453 575.181C 620.453 574.284 620.491 573.31 620.569 572.259L620.569 572.259L620.502 572.259L616.352 583L615.215 583z" stroke="none" fill="#4E4E4E" fill-rule="nonzero" />
    <path d="M692.823 579.771C 692.823 580.839 692.435 581.672 691.661 582.27C 690.886 582.867 689.834 583.166 688.506 583.166C 687.068 583.166 685.961 582.981 685.186 582.61L685.186 582.61L685.186 581.249C 685.684 581.459 686.226 581.625 686.813 581.747C 687.4 581.868 687.981 581.929 688.556 581.929C 689.497 581.929 690.205 581.752 690.681 581.398C 691.157 581.038 691.395 580.54 691.395 579.904C 691.395 579.483 691.309 579.14 691.138 578.875C 690.972 578.603 690.689 578.354 690.291 578.127C 689.898 577.901 689.298 577.643 688.49 577.355C 687.361 576.951 686.553 576.473 686.066 575.919C 685.584 575.366 685.344 574.644 685.344 573.753C 685.344 572.818 685.695 572.073 686.398 571.52C 687.101 570.967 688.03 570.69 689.187 570.69C 690.393 570.69 691.503 570.911 692.516 571.354L692.516 571.354L692.076 572.583C 691.074 572.162 690.1 571.952 689.154 571.952C 688.407 571.952 687.823 572.112 687.402 572.433C 686.982 572.754 686.771 573.2 686.771 573.77C 686.771 574.19 686.849 574.536 687.004 574.807C 687.159 575.073 687.419 575.319 687.784 575.546C 688.155 575.767 688.719 576.014 689.478 576.285C 690.75 576.738 691.625 577.225 692.101 577.746C 692.582 578.266 692.823 578.941 692.823 579.771zM698.94 583.166C 697.596 583.166 696.533 582.757 695.753 581.938C 694.978 581.118 694.591 579.981 694.591 578.526C 694.591 577.059 694.951 575.895 695.67 575.031C 696.395 574.168 697.366 573.736 698.583 573.736C 699.723 573.736 700.625 574.113 701.29 574.865C 701.954 575.612 702.286 576.6 702.286 577.829L702.286 577.829L702.286 578.7L696.019 578.7C 696.046 579.768 696.315 580.579 696.824 581.132C 697.338 581.686 698.061 581.962 698.99 581.962C 699.97 581.962 700.938 581.758 701.896 581.348L701.896 581.348L701.896 582.577C 701.409 582.787 700.946 582.936 700.509 583.025C 700.078 583.119 699.555 583.166 698.94 583.166zM698.567 574.89C 697.836 574.89 697.253 575.128 696.815 575.604C 696.384 576.08 696.129 576.738 696.052 577.58L696.052 577.58L700.808 577.58C 700.808 576.711 700.614 576.047 700.227 575.587C 699.84 575.123 699.286 574.89 698.567 574.89zM708.08 582.012C 708.998 582.012 709.668 581.766 710.088 581.273C 710.509 580.781 710.733 579.951 710.761 578.783L710.761 578.783L710.761 578.476C 710.761 577.203 710.545 576.287 710.113 575.729C 709.682 575.17 708.998 574.89 708.063 574.89C 707.255 574.89 706.635 575.206 706.204 575.836C 705.778 576.462 705.564 577.347 705.564 578.493C 705.564 579.638 705.775 580.513 706.195 581.116C 706.621 581.713 707.25 582.012 708.08 582.012zM707.872 583.166C 706.699 583.166 705.783 582.754 705.125 581.929C 704.466 581.105 704.137 579.954 704.137 578.476C 704.137 576.987 704.469 575.825 705.133 574.99C 705.797 574.154 706.721 573.736 707.905 573.736C 709.15 573.736 710.108 574.207 710.777 575.147L710.777 575.147L710.852 575.147L711.051 573.902L712.139 573.902L712.139 587.084L710.761 587.084L710.761 583.191C 710.761 582.638 710.791 582.167 710.852 581.78L710.852 581.78L710.744 581.78C 710.108 582.704 709.15 583.166 707.872 583.166zM716.364 573.902L716.364 579.804C 716.364 580.546 716.533 581.099 716.87 581.464C 717.208 581.83 717.736 582.012 718.456 582.012C 719.407 582.012 720.102 581.752 720.539 581.232C 720.982 580.712 721.203 579.862 721.203 578.684L721.203 578.684L721.203 573.902L722.581 573.902L722.581 583L721.444 583L721.245 581.78L721.17 581.78C 720.888 582.228 720.495 582.571 719.991 582.809C 719.493 583.047 718.923 583.166 718.281 583.166C 717.174 583.166 716.344 582.903 715.791 582.377C 715.243 581.852 714.969 581.011 714.969 579.854L714.969 579.854L714.969 573.902L716.364 573.902zM729.354 583.166C 728.01 583.166 726.947 582.757 726.167 581.938C 725.392 581.118 725.005 579.981 725.005 578.526C 725.005 577.059 725.365 575.895 726.084 575.031C 726.809 574.168 727.78 573.736 728.998 573.736C 730.138 573.736 731.04 574.113 731.704 574.865C 732.368 575.612 732.7 576.6 732.7 577.829L732.7 577.829L732.7 578.7L726.433 578.7C 726.46 579.768 726.729 580.579 727.238 581.132C 727.752 581.686 728.475 581.962 729.404 581.962C 730.384 581.962 731.352 581.758 732.31 581.348L732.31 581.348L732.31 582.577C 731.823 582.787 731.361 582.936 730.923 583.025C 730.492 583.119 729.969 583.166 729.354 583.166zM728.981 574.89C 728.25 574.89 727.667 575.128 727.229 575.604C 726.798 576.08 726.543 576.738 726.466 577.58L726.466 577.58L731.222 577.58C 731.222 576.711 731.028 576.047 730.641 575.587C 730.254 575.123 729.7 574.89 728.981 574.89zM736.435 583L735.057 583L735.057 570.084L736.435 570.084L736.435 583zM740.735 583L739.357 583L739.357 573.902L740.735 573.902L740.735 583zM739.241 571.437C 739.241 571.122 739.318 570.892 739.473 570.748C 739.628 570.599 739.822 570.524 740.054 570.524C 740.276 570.524 740.466 570.599 740.627 570.748C 740.787 570.897 740.868 571.127 740.868 571.437C 740.868 571.747 740.787 571.979 740.627 572.134C 740.466 572.284 740.276 572.358 740.054 572.358C 739.822 572.358 739.628 572.284 739.473 572.134C 739.318 571.979 739.241 571.747 739.241 571.437zM749.476 583L742.876 583L742.876 582.062L747.84 574.973L743.184 574.973L743.184 573.902L749.351 573.902L749.351 574.973L744.454 581.929L749.476 581.929L749.476 583zM755.452 583.166C 754.107 583.166 753.045 582.757 752.265 581.938C 751.49 581.118 751.103 579.981 751.103 578.526C 751.103 577.059 751.462 575.895 752.182 575.031C 752.907 574.168 753.878 573.736 755.095 573.736C 756.235 573.736 757.137 574.113 757.801 574.865C 758.465 575.612 758.797 576.6 758.797 577.829L758.797 577.829L758.797 578.7L752.53 578.7C 752.558 579.768 752.826 580.579 753.335 581.132C 753.85 581.686 754.572 581.962 755.502 581.962C 756.481 581.962 757.45 581.758 758.407 581.348L758.407 581.348L758.407 582.577C 757.92 582.787 757.458 582.936 757.021 583.025C 756.589 583.119 756.066 583.166 755.452 583.166zM755.079 574.89C 754.348 574.89 753.764 575.128 753.327 575.604C 752.896 576.08 752.641 576.738 752.563 577.58L752.563 577.58L757.32 577.58C 757.32 576.711 757.126 576.047 756.739 575.587C 756.351 575.123 755.798 574.89 755.079 574.89z" stroke="none" fill="#4E4E4E" fill-rule="nonzero" />
    <path d="M837.847 584L831.082 584L831.082 571.864L837.847 571.864L837.847 573.118L832.493 573.118L832.493 577.027L837.523 577.027L837.523 578.272L832.493 578.272L832.493 582.738L837.847 582.738L837.847 584zM846.53 582.78L846.455 582.78C 845.819 583.704 844.867 584.166 843.6 584.166C 842.41 584.166 841.483 583.759 840.819 582.946C 840.16 582.132 839.831 580.976 839.831 579.476C 839.831 577.976 840.163 576.812 840.827 575.981C 841.491 575.151 842.415 574.736 843.6 574.736C 844.834 574.736 845.78 575.185 846.438 576.081L846.438 576.081L846.546 576.081L846.488 575.425L846.455 574.786L846.455 571.084L847.833 571.084L847.833 584L846.712 584L846.53 582.78zM843.774 583.012C 844.715 583.012 845.395 582.758 845.816 582.249C 846.242 581.734 846.455 580.907 846.455 579.767L846.455 579.767L846.455 579.476C 846.455 578.187 846.239 577.268 845.808 576.72C 845.382 576.167 844.698 575.89 843.757 575.89C 842.949 575.89 842.33 576.206 841.898 576.836C 841.472 577.462 841.259 578.347 841.259 579.493C 841.259 580.655 841.472 581.532 841.898 582.124C 842.324 582.716 842.949 583.012 843.774 583.012zM858.209 574.902L858.209 575.774L856.524 575.973C 856.679 576.167 856.817 576.421 856.939 576.737C 857.061 577.047 857.122 577.398 857.122 577.791C 857.122 578.682 856.817 579.393 856.208 579.924C 855.6 580.456 854.764 580.721 853.702 580.721C 853.431 580.721 853.176 580.699 852.938 580.655C 852.351 580.965 852.058 581.355 852.058 581.825C 852.058 582.074 852.16 582.26 852.365 582.381C 852.57 582.498 852.921 582.556 853.419 582.556L853.419 582.556L855.03 582.556C 856.015 582.556 856.77 582.763 857.296 583.178C 857.827 583.593 858.093 584.196 858.093 584.988C 858.093 585.995 857.689 586.761 856.881 587.287C 856.073 587.818 854.894 588.084 853.345 588.084C 852.155 588.084 851.236 587.863 850.589 587.42C 849.947 586.977 849.626 586.352 849.626 585.544C 849.626 584.991 849.803 584.512 850.157 584.108C 850.511 583.704 851.009 583.43 851.651 583.286C 851.419 583.181 851.222 583.018 851.062 582.796C 850.907 582.575 850.83 582.318 850.83 582.024C 850.83 581.692 850.918 581.402 851.095 581.153C 851.272 580.904 851.552 580.663 851.934 580.431C 851.463 580.237 851.079 579.908 850.78 579.443C 850.486 578.978 850.34 578.447 850.34 577.849C 850.34 576.853 850.639 576.087 851.236 575.55C 851.834 575.007 852.681 574.736 853.776 574.736C 854.252 574.736 854.681 574.792 855.063 574.902L855.063 574.902L858.209 574.902zM850.954 585.527C 850.954 586.02 851.162 586.393 851.577 586.648C 851.992 586.903 852.587 587.03 853.361 587.03C 854.518 587.03 855.373 586.855 855.926 586.507C 856.485 586.164 856.765 585.696 856.765 585.104C 856.765 584.611 856.612 584.268 856.308 584.075C 856.004 583.887 855.431 583.792 854.59 583.792L854.59 583.792L852.938 583.792C 852.313 583.792 851.826 583.942 851.477 584.241C 851.128 584.54 850.954 584.968 850.954 585.527zM851.701 577.816C 851.701 578.452 851.881 578.934 852.241 579.26C 852.6 579.587 853.101 579.75 853.743 579.75C 855.088 579.75 855.76 579.097 855.76 577.791C 855.76 576.424 855.08 575.741 853.718 575.741C 853.071 575.741 852.573 575.915 852.224 576.264C 851.875 576.612 851.701 577.13 851.701 577.816zM863.92 584.166C 862.575 584.166 861.513 583.757 860.732 582.938C 859.958 582.118 859.57 580.981 859.57 579.526C 859.57 578.059 859.93 576.895 860.649 576.031C 861.374 575.168 862.346 574.736 863.563 574.736C 864.703 574.736 865.605 575.113 866.269 575.865C 866.933 576.612 867.265 577.6 867.265 578.829L867.265 578.829L867.265 579.7L860.998 579.7C 861.026 580.768 861.294 581.579 861.803 582.132C 862.318 582.686 863.04 582.962 863.97 582.962C 864.949 582.962 865.918 582.758 866.875 582.348L866.875 582.348L866.875 583.577C 866.388 583.787 865.926 583.936 865.489 584.025C 865.057 584.119 864.534 584.166 863.92 584.166zM863.546 575.89C 862.816 575.89 862.232 576.128 861.795 576.604C 861.363 577.08 861.109 577.738 861.031 578.58L861.031 578.58L865.788 578.58C 865.788 577.711 865.594 577.047 865.207 576.587C 864.819 576.123 864.266 575.89 863.546 575.89zM879.517 577.816C 879.517 579.819 878.972 581.352 877.882 582.415C 876.797 583.472 875.234 584 873.192 584L873.192 584L869.83 584L869.83 571.864L873.549 571.864C 875.436 571.864 876.902 572.387 877.948 573.433C 878.994 574.479 879.517 575.94 879.517 577.816zM878.023 577.866C 878.023 576.283 877.625 575.09 876.828 574.288C 876.036 573.486 874.858 573.084 873.292 573.084L873.292 573.084L871.241 573.084L871.241 582.78L872.959 582.78C 874.642 582.78 875.906 582.368 876.753 581.543C 877.6 580.713 878.023 579.487 878.023 577.866zM882.231 571.864L885.66 571.864C 887.27 571.864 888.435 572.105 889.154 572.586C 889.874 573.068 890.233 573.829 890.233 574.869C 890.233 575.589 890.031 576.183 889.627 576.654C 889.229 577.119 888.645 577.42 887.876 577.559L887.876 577.559L887.876 577.642C 889.719 577.957 890.64 578.925 890.64 580.547C 890.64 581.632 890.272 582.478 889.536 583.087C 888.806 583.696 887.782 584 886.465 584L886.465 584L882.231 584L882.231 571.864zM883.643 577.061L885.967 577.061C 886.963 577.061 887.68 576.906 888.117 576.596C 888.554 576.28 888.772 575.752 888.772 575.01C 888.772 574.33 888.529 573.84 888.042 573.541C 887.555 573.237 886.78 573.084 885.718 573.084L885.718 573.084L883.643 573.084L883.643 577.061zM883.643 578.256L883.643 582.796L886.174 582.796C 887.154 582.796 887.89 582.608 888.382 582.232C 888.88 581.85 889.129 581.255 889.129 580.447C 889.129 579.695 888.875 579.141 888.366 578.787C 887.862 578.433 887.093 578.256 886.058 578.256L886.058 578.256L883.643 578.256z" stroke="none" fill="#4E4E4E" fill-rule="nonzero" />
    <path d="M128 488C 128 486.895 128.895 486 130 486L130 486L211 486C 212.105 486 213 486.895 213 488L213 488L213 547C 213 548.105 212.105 549 211 549L211 549L130 549C 128.895 549 128 548.105 128 547L128 547L128 488z" stroke="none" fill="#D9D9D9" fill-rule="nonzero" />
    <path d="M266 455C 266 453.895 266.895 453 268 453L268 453L349 453C 350.105 453 351 453.895 351 455L351 455L351 547C 351 548.105 350.105 549 349 549L349 549L268 549C 266.895 549 266 548.105 266 547L266 547L266 455z" stroke="none" fill="#D9D9D9" fill-rule="nonzero" />
    <path d="M404 453C 404 451.895 404.895 451 406 451L406 451L487 451C 488.105 451 489 451.895 489 453L489 453L489 547C 489 548.105 488.105 549 487 549L487 549L406 549C 404.895 549 404 548.105 404 547L404 547L404 453z" stroke="none" fill="#D9D9D9" fill-rule="nonzero" />
    <path d="M542 432C 542 430.895 542.895 430 544 430L544 430L625 430C 626.105 430 627 430.895 627 432L627 432L627 547C 627 548.105 626.105 549 625 549L625 549L544 549C 542.895 549 542 548.105 542 547L542 547L542 432z" stroke="none" fill="#D9D9D9" fill-rule="nonzero" />
    <path d="M680 385C 680 383.895 680.895 383 682 383L682 383L763 383C 764.105 383 765 383.895 765 385L765 385L765 547C 765 548.105 764.105 549 763 549L763 549L682 549C 680.895 549 680 548.105 680 547L680 547L680 385z" stroke="none" fill="#D9D9D9" fill-rule="nonzero" />
    <path d="M818 39C 818 37.8954 818.895 37 820 37L820 37L901 37C 902.105 37 903 37.8954 903 39L903 39L903 547C 903 548.105 902.105 549 901 549L901 549L820 549C 818.895 549 818 548.105 818 547L818 547L818 39z" stroke="none" fill="#75E3C3" fill-rule="nonzero" />
    <path d="M48.0004 549L48 50" stroke="#E6E6E6" stroke-width="2" fill="none" />
    <path d="M49 550L33 550" stroke="#E6E6E6" stroke-width="2" fill="none" />
    <path d="M49 450L33 450" stroke="#E6E6E6" stroke-width="2" fill="none" />
    <path d="M49 350L33 350" stroke="#E6E6E6" stroke-width="2" fill="none" />
    <path d="M49 250L33 250" stroke="#E6E6E6" stroke-width="2" fill="none" />
    <path d="M49 150L33 150" stroke="#E6E6E6" stroke-width="2" fill="none" />
    <path d="M49 50L33 50" stroke="#E6E6E6" stroke-width="2" fill="none" />
</g>
</svg>